<svg xmlns="http://www.w3.org/2000/svg" viewBox="0 0 407.21 358" fill="#6f7472"><path d="M459.6,205.5a15.09,15.09,0,0,0-15.07-15.07H407a6,6,0,0,0,0,11.93h37.55a3.15,3.15,0,0,1,3.14,3.14V412.25L365.39,311.08a15,15,0,0,0-11.69-5.57H284.19a6,6,0,0,0,0,11.93H353.7a3.16,3.16,0,0,1,2.44,1.16l85,104.47H148.28a3.11,3.11,0,0,1-2.43-1.16l-80.8-99.34a3.15,3.15,0,0,1,2.44-5.13H254.74a6,6,0,1,0,0-11.93H149.92v-45.7c.85,0,1.69,0,2.55,0h70.1a12.32,12.32,0,0,0,8.71-21l-10.09-10.09a90.58,90.58,0,0,0,22.64-57.15H263.5a3.12,3.12,0,0,1,2.22.92l16.73,16.74a28.16,28.16,0,1,0,54.14,13.14h40.94a6,6,0,1,0,0-11.93H335.11a28.14,28.14,0,0,0-45.77-11.2l-15.19-15.18a15,15,0,0,0-10.65-4.42H243.45A90.79,90.79,0,0,0,228,116.87a6,6,0,0,0-9.84,6.74,79.5,79.5,0,0,1-9.45,101,6,6,0,0,0,0,8.44l14.17,14.17a.39.39,0,0,1-.28.67h-70.1A79.49,79.49,0,1,1,199,104a6,6,0,0,0,7-9.67,91.42,91.42,0,1,0-68,164.38v46.82H67.49A15.07,15.07,0,0,0,55.8,330.09l80.79,99.35A15,15,0,0,0,148.28,435H453.64a6,6,0,0,0,6-6V205.5Zm-151-21.93a16.24,16.24,0,1,1-16.24,16.23A16.25,16.25,0,0,1,308.55,183.57Z" transform="translate(-52.4 -77)"/><path d="M272.48,375.67l20.59,27.05a14,14,0,0,0,11.07,5.49h80.35a9.94,9.94,0,0,0,7.91-16L371.81,365.2a14,14,0,0,0-11.08-5.49H280.39a9.94,9.94,0,0,0-7.91,16Zm88.25-4a2,2,0,0,1,1.58.78l18.16,23.86H304.14a2,2,0,0,1-1.58-.78L284.4,371.64Z" transform="translate(-52.4 -77)"/><path d="M213.54,402.25a6,6,0,0,0,6,6H256a6,6,0,1,0,0-11.93H219.51a6,6,0,0,0-6,6Z" transform="translate(-52.4 -77)"/><path d="M242.68,388.43a6,6,0,1,0,0-11.93H227.19a6,6,0,0,0,0,11.93Z" transform="translate(-52.4 -77)"/><path d="M423.79,235a10.78,10.78,0,0,0-18.39-7.62l-7,7-7-7a10.77,10.77,0,1,0-15.23,15.23l7,7-7,7a10.77,10.77,0,0,0,15.23,15.23l7-7,7,7a10.77,10.77,0,1,0,15.23-15.23l-7-7,7-7a10.67,10.67,0,0,0,3.16-7.61Zm-8.23,2.54L406,247.11a3.6,3.6,0,0,0,0,5.08l9.57,9.57a3.59,3.59,0,0,1-5.08,5.07l-9.57-9.56a3.56,3.56,0,0,0-5.07,0l-9.57,9.56a3.6,3.6,0,0,1-5.08,0,3.6,3.6,0,0,1-1.05-2.54,3.56,3.56,0,0,1,1.05-2.53l9.57-9.57a3.6,3.6,0,0,0,0-5.08l-9.57-9.56a3.6,3.6,0,0,1,0-5.08,3.6,3.6,0,0,1,5.08,0l9.57,9.57a3.59,3.59,0,0,0,5.07,0l9.57-9.57a3.59,3.59,0,0,1,5.08,5.08Z" transform="translate(-52.4 -77)"/><path d="M386.29,179.15a23.49,23.49,0,1,0-23.48-23.49,23.52,23.52,0,0,0,23.48,23.49Zm0-35a11.56,11.56,0,1,1-11.55,11.55A11.56,11.56,0,0,1,386.29,144.11Z" transform="translate(-52.4 -77)"/><path d="M326.17,135.31a6,6,0,0,0,8.43,0l3.23-3.23,3.23,3.23a6,6,0,0,0,8.43-8.44l-3.22-3.23,3.22-3.22a6,6,0,0,0-8.43-8.44l-3.23,3.23L334.6,112a6,6,0,1,0-8.43,8.44l3.23,3.22-3.23,3.23a6,6,0,0,0,0,8.44Z" transform="translate(-52.4 -77)"/><path d="M74.92,287.17a6,6,0,0,0,8.43,0L89,281.55l5.62,5.62a6,6,0,1,0,8.44-8.44l-5.62-5.62L103,267.5a6,6,0,1,0-8.44-8.44L89,264.68l-5.62-5.62a6,6,0,1,0-8.43,8.44l5.62,5.61-5.62,5.62A6,6,0,0,0,74.92,287.17Z" transform="translate(-52.4 -77)"/><path d="M139,189.46a3.89,3.89,0,0,0,5.49.47,10.65,10.65,0,0,1,6.82-2.32h0a10.66,10.66,0,0,1,6.84,2.36,3.9,3.9,0,1,0,5.06-5.93,18.3,18.3,0,0,0-11.88-4.23h-.06A18.35,18.35,0,0,0,139.46,184a3.9,3.9,0,0,0-.46,5.49Z" transform="translate(-52.4 -77)"/><path d="M172.68,173.16l.24,0h.17a3.9,3.9,0,0,0,.79-7.72h0l-.35-.05h-.44l-.4,0a3.9,3.9,0,0,0,0,7.75Z" transform="translate(-52.4 -77)"/><path d="M130.63,165.39a3.92,3.92,0,1,0,.05,0Z" transform="translate(-52.4 -77)"/><path d="M114.24,143.16a48.46,48.46,0,1,0,48.08-16.77,3.9,3.9,0,1,0-1.68,7.62,40.68,40.68,0,1,1-17.57,0,3.9,3.9,0,1,0-1.67-7.61,48.61,48.61,0,0,0-27.16,16.76Z" transform="translate(-52.4 -77)"/><path d="M151.85,131.14a3.89,3.89,0,0,0,3.89-3.88l0-12.64a3.9,3.9,0,0,0-3.88-3.91h0A3.89,3.89,0,0,0,148,114.6l0,12.63a3.89,3.89,0,0,0,3.88,3.91Z" transform="translate(-52.4 -77)"/><path d="M133,136.53a3.81,3.81,0,0,0,2-.56,3.88,3.88,0,0,0,1.34-5.34l-6.56-11a3.9,3.9,0,1,0-6.69,4l6.57,11A3.89,3.89,0,0,0,133,136.53Z" transform="translate(-52.4 -77)"/><path d="M170.65,136.7a3.89,3.89,0,0,0,3.34-1.88l6.63-10.92a3.9,3.9,0,1,0-6.66-4.05l-6.63,10.93a3.89,3.89,0,0,0,1.31,5.35,3.81,3.81,0,0,0,2,.57Z" transform="translate(-52.4 -77)"/></svg>